# xmcd CD database file
#
# Track frame offsets:
#	150
#	30777
#	49384
#	75978
#	95329
#	122355
#	146254
#	158480
#	189345
#	205423
#	231794
#	247409
#	268968
#
# Disc length: 3754 seconds
#
# Revision: 0
# Processed by: cddbd v1.5.2PL0 Copyright (c) Steve Scherf et al.
# Submitted via: CDex 1.70beta2
#
DISCID=a40ea80d
DTITLE=JAZZ - Saxophone cd1
DYEAR=1900
DGENRE=Jazz
TTITLE0=Sonny ROLLINS St. - Thomas 1956
TTITLE1=Bobby Jaspar - A Night In Tunisia 1956
TTITLE2=Art Pepper - Imagination 1957
TTITLE3=Duke Elington/John Coltrane - In a Sentimental Mood 1962
TTITLE4=Joe Henderson - Isfahan 1992
TTITLE5=LesterYoung/Teddy Wilson - Louise 1956
TTITLE6=Sidney Bechet - It Had to Be You 1949
TTITLE7=Eric Dolphy - 245 1960
TTITLE8=Barney Wilen - Menilmontant 1958
TTITLE9=Benny Golson - Just by Myself 1963
TTITLE10=Charlie Parker - Bloomdido 1950
TTITLE11=Ornette Coleman - The Blessing 1958
TTITLE12=Sonny Criss - Don't Blame Me 1963
EXTD=
EXTT0=
EXTT1=
EXTT2=
EXTT3=
EXTT4=
EXTT5=
EXTT6=
EXTT7=
EXTT8=
EXTT9=
EXTT10=
EXTT11=
EXTT12=
PLAYORDER=
